<svg width="19" height="23" viewBox="0 0 19 23" fill="none" xmlns="http://www.w3.org/2000/svg">
<path d="M16.1149 22.7046H11.0426V16.4072H8.1441V22.7046H3.07178V12.5318C3.07178 12.4034 3.10995 12.2802 3.1779 12.1893C3.24584 12.0985 3.338 12.0474 3.43409 12.0474C3.53018 12.0474 3.62233 12.0985 3.69028 12.1893C3.75822 12.2802 3.79639 12.4034 3.79639 12.5318V21.7358H7.41948V15.4384H11.7672V21.7358H15.3903V13.0163C15.3903 12.8878 15.4284 12.7646 15.4964 12.6737C15.5643 12.5829 15.6565 12.5318 15.7526 12.5318C15.8487 12.5318 15.9408 12.5829 16.0088 12.6737C16.0767 12.7646 16.1149 12.8878 16.1149 13.0163V22.7046Z" fill="#333333"/>
<path d="M17.9267 12.5318C17.8334 12.532 17.7437 12.4839 17.6763 12.3976L9.59357 2.0606L1.51083 12.3976C1.4414 12.4864 1.34842 12.5348 1.25235 12.532C1.15627 12.5291 1.06497 12.4754 0.998522 12.3826C0.932076 12.2898 0.89593 12.1654 0.898036 12.037C0.900143 11.9085 0.940329 11.7865 1.00975 11.6976L9.59357 0.719727L18.177 11.6971C18.2293 11.764 18.2655 11.8502 18.2808 11.9448C18.2961 12.0393 18.2899 12.1379 18.263 12.2277C18.2361 12.3175 18.1896 12.3944 18.1297 12.4486C18.0697 12.5028 17.999 12.5318 17.9267 12.5318ZM15.0282 6.71876C14.9321 6.71876 14.84 6.66773 14.772 6.57688C14.7041 6.48603 14.6659 6.36282 14.6659 6.23434V3.32783H12.492C12.3959 3.32783 12.3038 3.2768 12.2358 3.18595C12.1679 3.09511 12.1297 2.97189 12.1297 2.84342C12.1297 2.71494 12.1679 2.59173 12.2358 2.50088C12.3038 2.41004 12.3959 2.359 12.492 2.359H15.3905V6.23434C15.3905 6.36282 15.3523 6.48603 15.2844 6.57688C15.2164 6.66773 15.1243 6.71876 15.0282 6.71876Z" fill="#333333"/>
</svg>
