<svg width="20" height="12" viewBox="0 0 20 12" fill="none" xmlns="http://www.w3.org/2000/svg">
<path d="M18.7216 5.22418H1.04314C0.467028 5.22418 0 5.60012 0 6.06385V6.15224C0 6.61598 0.467028 6.99191 1.04314 6.99191H18.7216C19.2977 6.99191 19.7647 6.61598 19.7647 6.15224V6.06385C19.7647 5.60012 19.2977 5.22418 18.7216 5.22418Z" fill="black"/>
<path d="M18.7216 9.64337H1.04314C0.467028 9.64337 0 10.0193 0 10.483V10.5714C0 11.0352 0.467028 11.4111 1.04314 11.4111H18.7216C19.2977 11.4111 19.7647 11.0352 19.7647 10.5714V10.483C19.7647 10.0193 19.2977 9.64337 18.7216 9.64337Z" fill="black"/>
<path d="M18.7216 0.804688H1.04314C0.467028 0.804688 0 1.18062 0 1.64436V1.73275C0 2.19648 0.467028 2.57242 1.04314 2.57242H18.7216C19.2977 2.57242 19.7647 2.19648 19.7647 1.73275V1.64436C19.7647 1.18062 19.2977 0.804688 18.7216 0.804688Z" fill="black"/>
</svg>
