<svg width="54" height="54" viewBox="0 0 54 54" fill="none" xmlns="http://www.w3.org/2000/svg">
<path d="M27 0C41.9149 0 54 12.0851 54 27C54 41.9149 41.9149 54 27 54C12.0851 54 0 41.9149 0 27C0 12.0851 12.0851 0 27 0ZM27 51.7543C34.6067 51.7543 41.4216 48.3014 45.9649 42.8885C43.6543 41.8889 37.8909 39.812 34.2433 38.7476C33.9577 38.6567 33.9058 38.6437 33.9058 37.3587C33.9058 35.9827 34.0615 35.0091 34.399 34.2952C34.8534 33.3216 35.3986 31.6731 35.5933 30.1933C36.1385 29.5572 36.8784 28.3111 37.3587 25.9226C37.774 23.8197 37.5793 23.0538 37.3067 22.3399C37.2808 22.262 37.2418 22.1841 37.2288 22.1063C37.125 21.626 37.2678 19.0558 37.6312 17.0697C37.8779 15.7067 37.5663 12.812 35.6841 10.4106C34.5029 8.89183 32.2312 7.03558 28.1553 6.77596H25.8837C21.7428 7.03558 19.4712 8.89183 18.2899 10.4106C16.4077 12.812 16.0962 15.7067 16.3558 17.0697C16.7192 19.0558 16.862 21.613 16.7582 22.1063C16.7452 22.1841 16.7062 22.262 16.6803 22.3269C16.4077 23.0409 16.2 23.8067 16.6284 25.9096C17.1087 28.2981 17.8486 29.5442 18.3937 30.1803C18.5885 31.6601 19.1337 33.2957 19.588 34.2822C20.0163 35.1779 20.4447 36.2423 20.4447 37.3067C20.4447 38.5918 20.3928 38.6048 20.0942 38.6957C16.6284 39.7212 10.6572 41.7851 8.02211 42.8625C12.5654 48.2885 19.3803 51.7543 27 51.7543Z" fill="#C8C8C8"/>
</svg>
